<svg width="48" height="48" viewBox="0 0 48 48" fill="none" xmlns="http://www.w3.org/2000/svg">
    <g clip-path="url(#clip0_37_35127)">
        <path d="M24 47.9062C37.1513 47.9062 47.8125 37.2031 47.8125 24C47.8125 10.7969 37.1513 0.09375 24 0.09375C10.8487 0.09375 0.1875 10.7969 0.1875 24C0.1875 37.2031 10.8487 47.9062 24 47.9062Z"
              fill="#D0E3F5"/>
        <path d="M24 44.5312C35.3391 44.5312 44.5312 35.3391 44.5312 24C44.5312 12.6609 35.3391 3.46875 24 3.46875C12.6609 3.46875 3.46875 12.6609 3.46875 24C3.46875 35.3391 12.6609 44.5312 24 44.5312Z"
              fill="#2259E6"/>
        <path d="M24.375 5.0437H23.625V8.9812H24.375V5.0437Z" fill="#3FA4F0"/>
        <path d="M20.9622 7.4438L20.531 7.50005L20.2778 5.46567L20.7091 5.40942L20.9622 7.4438Z"
              fill="#3FA4F0"/>
        <path d="M17.6902 8.33442L17.2684 8.43755L16.7715 6.45005L17.1934 6.34692L17.6902 8.33442Z"
              fill="#3FA4F0"/>
        <path d="M12.2438 11.9905L11.8969 12.253L10.6875 10.603L11.0344 10.3499L12.2438 11.9905Z"
              fill="#3FA4F0"/>
        <path d="M10.2 14.3906L9.90937 14.7188L8.39062 13.3594L8.67188 13.0312L10.2 14.3906Z"
              fill="#3FA4F0"/>
        <path d="M14.0607 7.8605L13.3789 8.1731L15.0201 11.7523L15.7018 11.4397L14.0607 7.8605Z"
              fill="#3FA4F0"/>
        <path d="M7.02152 15.7981L6.5293 16.364L9.50014 18.9482L9.99237 18.3823L7.02152 15.7981Z"
              fill="#3FA4F0"/>
        <path d="M27.0371 7.4438L27.4684 7.50005L27.7215 5.46567L27.2902 5.40942L27.0371 7.4438Z"
              fill="#3FA4F0"/>
        <path d="M30.3091 8.33442L30.731 8.43755L31.2278 6.45005L30.806 6.34692L30.3091 8.33442Z"
              fill="#3FA4F0"/>
        <path d="M35.7559 11.9905L36.1027 12.253L37.3121 10.603L36.9652 10.3499L35.7559 11.9905Z"
              fill="#3FA4F0"/>
        <path d="M37.7998 14.3906L38.0904 14.7188L39.6092 13.3594L39.3279 13.0312L37.7998 14.3906Z"
              fill="#3FA4F0"/>
        <path d="M32.2953 11.4403L32.9771 11.7529L34.6182 8.17374L33.9365 7.86114L32.2953 11.4403Z"
              fill="#3FA4F0"/>
        <path d="M38.0058 18.3775L38.498 18.9434L41.4689 16.3592L40.9767 15.7933L38.0058 18.3775Z"
              fill="#3FA4F0"/>
        <path d="M24 42.225C25.0355 42.225 25.875 41.3771 25.875 40.3313C25.875 39.2854 25.0355 38.4375 24 38.4375C22.9645 38.4375 22.125 39.2854 22.125 40.3313C22.125 41.3771 22.9645 42.225 24 42.225Z"
              fill="#3FA4F0"/>
        <path d="M18.6562 39.9844C19.3552 39.9844 19.9219 39.4177 19.9219 38.7188C19.9219 38.0198 19.3552 37.4531 18.6562 37.4531C17.9573 37.4531 17.3906 38.0198 17.3906 38.7188C17.3906 39.4177 17.9573 39.9844 18.6562 39.9844Z"
              fill="#3FA4F0"/>
        <path d="M29.1562 39.9844C29.8552 39.9844 30.4219 39.4177 30.4219 38.7188C30.4219 38.0198 29.8552 37.4531 29.1562 37.4531C28.4573 37.4531 27.8906 38.0198 27.8906 38.7188C27.8906 39.4177 28.4573 39.9844 29.1562 39.9844Z"
              fill="#3FA4F0"/>
        <path d="M24 9.75C16.1813 9.75 9.84375 16.0875 9.84375 23.9062C9.84375 28.3125 11.8594 32.25 15.0187 34.8469C15.7312 34.1437 16.5281 33.525 17.3906 33.0094C14.5781 30.9656 12.75 27.6562 12.75 23.9062C12.75 17.6906 17.7844 12.6562 24 12.6562C30.2156 12.6562 35.25 17.6906 35.25 23.9062C35.25 27.6562 33.4219 30.9656 30.6 33.0094C31.4625 33.525 32.2594 34.1437 32.9719 34.8469C36.1406 32.25 38.1562 28.3125 38.1562 23.9062C38.1562 16.0875 31.8188 9.75 24 9.75Z"
              fill="url(#paint0_linear_37_35127)"/>
        <path d="M24.0001 32.2969C18.5345 32.2969 13.9407 36.0469 12.647 41.1094C12.9188 41.2969 13.2001 41.4656 13.4813 41.6344C14.5688 36.825 18.8626 33.2344 24.0001 33.2344C29.1376 33.2344 33.4313 36.825 34.5188 41.6344C34.8001 41.4656 35.0813 41.2875 35.3532 41.1094C34.0595 36.0375 29.4657 32.2969 24.0001 32.2969Z"
              fill="#3FA4F0"/>
        <path d="M24.0002 9.75C18.2533 9.75 13.3127 13.1719 11.0908 18.0844C13.7158 14.6531 17.8502 12.4313 22.5002 12.4313C25.4252 12.4313 28.1439 13.3125 30.4127 14.8125L31.8283 12.1125C29.5877 10.6219 26.8971 9.75 24.0002 9.75Z"
              fill="white" fill-opacity="0.2"/>
        <path d="M31.5656 14.7468L23.2969 29.7843C21.7219 30.1125 20.5312 31.5093 20.5312 33.1781C20.5312 35.0906 22.0875 36.6468 24 36.6468C25.9125 36.6468 27.4688 35.0906 27.4688 33.1781C27.4688 32.4468 27.2438 31.7718 26.8594 31.2187L31.5656 14.7468Z"
              fill="white"/>
        <path d="M24 35.4375C25.2426 35.4375 26.25 34.4301 26.25 33.1875C26.25 31.9449 25.2426 30.9375 24 30.9375C22.7574 30.9375 21.75 31.9449 21.75 33.1875C21.75 34.4301 22.7574 35.4375 24 35.4375Z"
              fill="#F84E24"/>
    </g>
    <defs>
        <linearGradient id="paint0_linear_37_35127" x1="24" y1="9.75" x2="24" y2="34.8469"
                        gradientUnits="userSpaceOnUse">
            <stop stop-color="#9201B4"/>
            <stop offset="1" stop-color="#205AE6"/>
        </linearGradient>
        <clipPath id="clip0_37_35127">
            <rect width="48" height="48" fill="white"/>
        </clipPath>
    </defs>
</svg>
